General                          : ChattChitto RG - Movies
==========
Complete name                    : The Men Who Stare At Goats 2009 BDRip.MP4
Format                           : MPEG-4
Format profile                   : Base Media
Codec ID                         : isom
File size                        : 1.73 GiB
Duration                         : 1h 33mn
Overall bit rate                 : 2 646 Kbps
Encoded date                     : UTC 2010-03-28 16:31:55

Video
===========
ID                               : 1
Format                           : AVC
Format/Info                      : Advanced Video Codec
Format profile                   : High@L3.1
Format settings, CABAC           : Yes
Format settings, ReFrames        : 3 frames
Codec ID                         : avc1
Codec ID/Info                    : Advanced Video Coding
Duration                         : 1h 33mn
Bit rate mode                    : Variable
Bit rate                         : 2 300 Kbps
Maximum bit rate                 : 10.2 Mbps
Width                            : 1 280 pixels
Height                           : 544 pixels
Display aspect ratio             : 2.35:1
Frame rate mode                  : Constant
Frame rate                       : 23.976 fps
Resolution                       : 8 bits
Colorimetry                      : 4:2:0
Scan type                        : Progressive
Bits/(Pixel*Frame)               : 0.138
Stream size                      : 1.51 GiB (87%)
Writing library                  : x264 core 76 r1271 496d79d
Encoded date                     : UTC 2010-03-28 12:56:11

Audio
==========
ID                               : 2
Format                           : AAC
Format/Info                      : Advanced Audio Codec
Format version                   : Version 4
Format profile                   : LC
Format settings, SBR             : No
Codec ID                         : 40
Duration                         : 1h 33mn
Bit rate mode                    : Variable
Bit rate                         : 343 Kbps
Maximum bit rate                 : 457 Kbps
Channel(s)                       : 6 channels
Channel positions                : Front: L C R, Side: L R, LFE
Sampling rate                    : 48.0 KHz
Stream size                      : 230 MiB (13%)
Encoded date                     : UTC 2010-03-28 16:32:47

Subtitles                        : English | Spanish [.srt]



----------------------------------------------------
IMDB Link: http://www.imdb.com/title/tt1234548/
----------------------------------------------------


Screen Shots:
============== 
http://bayimg.com/EALCiAAcJ 
http://bayimg.com/eALcHAACJ 
http://bayimg.com/eAlCFAacJ 
http://bayimg.com/EalCdaaCj 
http://bayimg.com/EalCCAACJ


Plot:
======
Reporter Bob Wilton is in search of his next big story when he encounters Lyn Cassady, a shadowy figure who claims to be part of an experimental U.S. military unit. According to Cassady, the New Earth Army is changing the way wars are fought. A legion of "Warrior Monks" with unparalleled psychic powers can read the enemy's thoughts, pass through solid walls, and even kill a goat simply by staring 
at it. Now, the program's founder, Bill Django, has gone missing and Cassady's mission is to find him. Intrigued by his new acquaintance's far-fetched stories, Bob impulsively decides to tag along. When the pair tracks Django to a clandestine training camp run by renegade psychic Larry Hooper, the reporter is trapped in the middle of a grudge match between the forces of Django's New Earth Army and Hooper's personal militia of super soldiers. In order to survive this wild adventure, Bob will have to outwit an enemy he never thought possible.



Release Info:
==============
original name .... : The Men Who Stare At Goats 2009 BDRip.MP4
ripper.............: Recalled2Life (R2L)
encoder............: Recalled2Life (R2L)
video codec........: H264/.MP4                   
video bitrate......: 2300 Kbps                           
audio codec........: AAC-LC	                                        
aspect ratio.......: 2.35:1                              
resolution.........: 1280 x 544                             
genre..............: Comedy | War          
runtime............: 1h 33mn
language...........: English                              
subtitles..........: English | Spanish
2ch Audio..........: 2ch Audio for XBox Viewers



Source:
========
The Men Who Stare At Goats 2009 Blu-Ray 1080p MP4 AVC/Dolby TrueHD 5.1 [22.7 GB]


Notes:
=======
ChattChitto RG Encourages Burning this Film with ConvertXtoDVD.
Enhanced and Filtered for your viewing pleasure ;)